<svg width="34" height="33" viewBox="0 0 34 33" fill="none" xmlns="http://www.w3.org/2000/svg">
<rect x="5.01404" y="11.3794" width="27.4571" height="18.1321" rx="1.29515" stroke="#B0BEC5" stroke-width="1.55418"/>
<path d="M21.8511 7.75281C22.8524 7.75286 23.6645 8.56491 23.6645 9.56628V11.3798H13.8208V9.56628C13.8208 8.56488 14.6329 7.75281 15.6343 7.75281H21.8511Z" stroke="#B0BEC5" stroke-width="1.55418"/>
<path d="M6.56821 21.9996C6.56821 22.4288 6.91612 22.7767 7.3453 22.7767C7.77447 22.7767 8.12239 22.4288 8.12239 21.9996L6.56821 21.9996ZM7.3453 11.6384L6.56821 11.6384L6.56821 21.9996L7.3453 21.9996L8.12239 21.9996L8.12239 11.6384L7.3453 11.6384Z" fill="#B0BEC5"/>
<path d="M27.2906 26.1441C27.2906 26.5733 27.6385 26.9212 28.0677 26.9212C28.4969 26.9212 28.8448 26.5733 28.8448 26.1441L27.2906 26.1441ZM28.0677 11.6384L27.2906 11.6384L27.2906 26.1441L28.0677 26.1441L28.8448 26.1441L28.8448 11.6384L28.0677 11.6384Z" fill="#B0BEC5"/>
<mask id="path-5-inside-1_688_1195" fill="white">
<rect x="14.5981" y="14.7468" width="8.28895" height="5.18059" rx="1.03612"/>
</mask>
<rect x="14.5981" y="14.7468" width="8.28895" height="5.18059" rx="1.03612" stroke="#B0BEC5" stroke-width="3.10836" mask="url(#path-5-inside-1_688_1195)"/>
<rect x="2.35259" y="8.20468" width="28.0536" height="18.526" rx="1.32328" stroke="black" stroke-width="1.58794"/>
<path d="M19.555 4.49951C20.5782 4.49951 21.4076 5.32891 21.4076 6.35205V8.20459H11.3509V6.35205C11.351 5.32892 12.1803 4.49953 13.2035 4.49951H19.555Z" stroke="black" stroke-width="1.58794"/>
<path d="M3.94054 19.0556C3.94054 19.4941 4.29601 19.8495 4.73451 19.8495C5.17301 19.8495 5.52848 19.4941 5.52848 19.0556L3.94054 19.0556ZM4.73451 8.4693L3.94054 8.4693L3.94054 19.0556L4.73451 19.0556L5.52848 19.0556L5.52848 8.4693L4.73451 8.4693Z" fill="black"/>
<path d="M25.1131 23.2901C25.1131 23.7286 25.4685 24.084 25.907 24.084C26.3455 24.084 26.701 23.7286 26.701 23.2901L25.1131 23.2901ZM25.907 8.4693L25.1131 8.4693L25.1131 23.2901L25.907 23.2901L26.701 23.2901L26.701 8.4693L25.907 8.4693Z" fill="black"/>
<mask id="path-10-inside-2_688_1195" fill="white">
<rect x="12.1449" y="11.6451" width="8.46901" height="5.29313" rx="1.05863"/>
</mask>
<rect x="12.1449" y="11.6451" width="8.46901" height="5.29313" rx="1.05863" stroke="black" stroke-width="3.17588" mask="url(#path-10-inside-2_688_1195)"/>
</svg>
