<svg width="64" height="62" viewBox="0 0 64 62" fill="none" xmlns="http://www.w3.org/2000/svg">
<path d="M61.0007 43.9999C61.0007 52.8366 53.8371 60.0002 45.0004 60.0002C36.1636 60.0002 29 52.8366 29 43.9999C29 35.1631 36.1636 27.9995 45.0004 27.9995" stroke="#FFB300" stroke-width="4" stroke-linecap="round" stroke-linejoin="round"/>
<path d="M61.0003 32L46.416 46.5843C46.0409 46.9597 45.5319 47.1706 45.0013 47.1706C44.4706 47.1706 43.9617 46.9597 43.5866 46.5843L39.0078 42.0002" stroke="#FFB300" stroke-width="4" stroke-linecap="round" stroke-linejoin="round"/>
<path d="M60 23.1534C60 24.2579 60.8954 25.1534 62 25.1534C63.1046 25.1534 64 24.2579 64 23.1534H60ZM62 1.99951H64C64 0.894942 63.1046 -0.000488281 62 -0.000488281V1.99951ZM32.5769 22.7687L31.4532 24.4232L32.5988 25.2014L33.7303 24.4027L32.5769 22.7687ZM2 1.99951V-0.000488281C0.89543 -0.000488281 0 0.894942 0 1.99951L2 1.99951ZM2 49.3072H0C0 50.4118 0.89543 51.3072 2 51.3072L2 49.3072ZM21.6923 51.3072C22.7969 51.3072 23.6923 50.4118 23.6923 49.3072C23.6923 48.2026 22.7969 47.3072 21.6923 47.3072V51.3072ZM64 23.1534V1.99951H60V23.1534H64ZM60.8466 0.365576L31.4236 21.1348L33.7303 24.4027L63.1534 3.63345L60.8466 0.365576ZM33.7007 21.1143L3.12377 0.345078L0.876234 3.65395L31.4532 24.4232L33.7007 21.1143ZM2 3.99951H62V-0.000488281H2V3.99951ZM0 1.99951V49.3072H4V1.99951H0ZM2 51.3072H21.6923V47.3072H2V51.3072Z" fill="#FFB300"/>
</svg>
