<svg width="64" height="64" viewBox="0 0 64 64" fill="none" xmlns="http://www.w3.org/2000/svg">
<path d="M61.9929 45.9994C61.9929 54.8361 54.8293 61.9997 45.9925 61.9997C37.1558 61.9997 29.9922 54.8361 29.9922 45.9994C29.9922 37.1626 37.1558 29.999 45.9925 29.999" stroke="#FFB300" stroke-width="4" stroke-linecap="round" stroke-linejoin="round"/>
<path d="M61.9925 33.9995L47.4082 48.5838C47.033 48.9592 46.5241 49.1701 45.9935 49.1701C45.4628 49.1701 44.9539 48.9592 44.5788 48.5838L40 43.9997" stroke="#FFB300" stroke-width="4" stroke-linecap="round" stroke-linejoin="round"/>
<path d="M21.9278 43.9995L6.4315 27.8258C1.82607 23.2213 0.684171 16.1862 3.59677 10.3614V10.3614C5.77148 6.01203 9.90468 2.97342 14.7048 2.19516C19.5049 1.41689 24.3864 2.99389 27.824 6.43333L32.0001 10.6068L36.1762 6.43333C39.6137 2.99389 44.4953 1.41689 49.2954 2.19516C54.0955 2.97342 58.2287 6.01203 60.4034 10.3614V10.3614C62.5505 14.658 62.5317 19.7185 60.3527 23.9991" stroke="#FFB300" stroke-width="4" stroke-linecap="round" stroke-linejoin="round"/>
</svg>
