<svg width="34" height="34" viewBox="0 0 34 34" fill="none" xmlns="http://www.w3.org/2000/svg">
<path d="M27.1011 26.6374C27.1011 26.5363 27.1162 26.433 27.1497 26.3375C28.3432 22.9309 32.7822 23.5078 32.7822 15.0557C32.7822 8.34938 27.3772 2.91284 20.7098 2.91284C14.567 2.91284 8.80116 6.3849 8.70654 13.4503C8.70391 13.6464 8.6469 13.8447 8.54061 14.0095C6.6586 16.9284 5.71216 18.6291 5.24024 19.5737C4.96841 20.1177 5.32375 20.6767 5.9294 20.7323L7.72874 20.8974C8.24346 20.9446 8.63737 21.3763 8.63737 21.8932V27.6271C8.63737 28.1794 9.08508 28.6271 9.63737 28.6271H13.3185C13.8708 28.6271 14.3185 29.0748 14.3185 29.6271V31.9128C14.3185 32.4651 14.7662 32.9128 15.3185 32.9128H26.1011C26.6534 32.9128 27.1011 32.4666 27.1011 31.9144C27.1011 30.803 27.1011 28.8671 27.1011 26.6374Z" stroke="#E1BEE7" stroke-width="1.5"/>
<path d="M14.3087 9.74958C15.6312 8.42738 17.7752 8.4279 19.0976 9.75027L20.0457 10.6984L20.9938 9.75027C22.3161 8.4279 24.4602 8.42738 25.7826 9.74958C27.1051 11.072 27.1051 13.2167 25.7826 14.5391L20.2225 20.0993C20.1248 20.1969 19.9665 20.1969 19.8689 20.0993L14.3087 14.5391C12.9863 13.2167 12.9863 11.072 14.3087 9.74958Z" stroke="#E1BEE7" stroke-width="1.5"/>
<path d="M24.8982 25.6426C24.8982 25.5381 24.9143 25.4314 24.9501 25.3332C26.1886 21.9314 30.7822 22.5042 30.7822 14.0557C30.7822 7.34938 25.1842 1.91284 18.2786 1.91284C11.9191 1.91284 5.94977 5.38195 5.84682 12.4413C5.84388 12.643 5.78365 12.8466 5.67162 13.0143C3.72835 15.9246 2.74895 17.623 2.25948 18.5681C1.97773 19.1121 2.33241 19.6758 2.94271 19.7298L4.8633 19.9C5.37936 19.9457 5.77505 20.378 5.77505 20.8961V26.6271C5.77505 27.1794 6.22276 27.6271 6.77505 27.6271H10.6591C11.2114 27.6271 11.6591 28.0748 11.6591 28.6271V30.9128C11.6591 31.4651 12.1068 31.9128 12.6591 31.9128H23.8982C24.4505 31.9128 24.8982 31.4666 24.8982 30.9144C24.8982 29.8039 24.8982 27.8701 24.8982 25.6426Z" stroke="black" stroke-width="1.5"/>
<path d="M12.2462 7.68396C13.5687 6.36177 15.7127 6.36229 17.0351 7.68465L17.9832 8.63276L18.9313 7.68465C20.2536 6.36229 22.3977 6.36177 23.7201 7.68396C25.0426 9.00641 25.0426 11.1511 23.7201 12.4735L18.16 18.0337C18.0623 18.1313 17.904 18.1313 17.8064 18.0337L12.2462 12.4735C10.9238 11.1511 10.9238 9.00641 12.2462 7.68396Z" stroke="black" stroke-width="1.5"/>
</svg>
