<svg width="32" height="32" viewBox="0 0 32 32" fill="none" xmlns="http://www.w3.org/2000/svg">
<rect x="3.75" y="10.7477" width="26.5" height="17.5" rx="1.25" stroke="white" stroke-width="1.5"/>
<path d="M20 7.24774C20.9665 7.24774 21.75 8.03124 21.75 8.99774V10.7477H12.25V8.99774C12.25 8.03124 13.0335 7.24774 14 7.24774H20Z" stroke="white" stroke-width="1.5"/>
<path d="M6.25 20.9977C6.25 21.412 6.58579 21.7477 7 21.7477C7.41421 21.7477 7.75 21.412 7.75 20.9977L6.25 20.9977ZM7 10.9977L6.25 10.9977L6.25 20.9977L7 20.9977L7.75 20.9977L7.75 10.9977L7 10.9977Z" fill="white"/>
<path d="M26.25 24.9977C26.25 25.412 26.5858 25.7477 27 25.7477C27.4142 25.7477 27.75 25.412 27.75 24.9977L26.25 24.9977ZM27 10.9977L26.25 10.9977L26.25 24.9977L27 24.9977L27.75 24.9977L27.75 10.9977L27 10.9977Z" fill="white"/>
<mask id="path-5-inside-1_692_2087" fill="white">
<rect x="13" y="13.9977" width="8" height="5" rx="1"/>
</mask>
<rect x="13" y="13.9977" width="8" height="5" rx="1" stroke="white" stroke-width="3" mask="url(#path-5-inside-1_692_2087)"/>
<rect x="1.75" y="8.74774" width="26.5" height="17.5" rx="1.25" stroke="black" stroke-width="1.5"/>
<path d="M18 5.24774C18.9665 5.24774 19.75 6.03124 19.75 6.99774V8.74774H10.25V6.99774C10.25 6.03124 11.0335 5.24774 12 5.24774H18Z" stroke="black" stroke-width="1.5"/>
<path d="M4.25 18.9977C4.25 19.412 4.58579 19.7477 5 19.7477C5.41421 19.7477 5.75 19.412 5.75 18.9977L4.25 18.9977ZM5 8.99774L4.25 8.99774L4.25 18.9977L5 18.9977L5.75 18.9977L5.75 8.99774L5 8.99774Z" fill="black"/>
<path d="M24.25 22.9977C24.25 23.412 24.5858 23.7477 25 23.7477C25.4142 23.7477 25.75 23.412 25.75 22.9977L24.25 22.9977ZM25 8.99774L24.25 8.99774L24.25 22.9977L25 22.9977L25.75 22.9977L25.75 8.99774L25 8.99774Z" fill="black"/>
<mask id="path-10-inside-2_692_2087" fill="white">
<rect x="11" y="11.9977" width="8" height="5" rx="1"/>
</mask>
<rect x="11" y="11.9977" width="8" height="5" rx="1" stroke="black" stroke-width="3" mask="url(#path-10-inside-2_692_2087)"/>
</svg>
