<svg width="32" height="32" viewBox="0 0 32 32" fill="none" xmlns="http://www.w3.org/2000/svg">
<rect x="3.75" y="10.75" width="26.5" height="17.5" rx="1.25" stroke="#FFDC00" stroke-width="1.5"/>
<path d="M21 10.75H21.75V10V9C21.75 8.0335 20.9665 7.25 20 7.25H14C13.0335 7.25 12.25 8.0335 12.25 9V10V10.75H13H21Z" stroke="#FFDC00" stroke-width="1.5"/>
<path d="M6.25 21C6.25 21.4142 6.58579 21.75 7 21.75C7.41421 21.75 7.75 21.4142 7.75 21L6.25 21ZM6.25 11L6.25 21L7.75 21L7.75 11L6.25 11Z" fill="#FFDC00"/>
<path d="M26.25 25C26.25 25.4142 26.5858 25.75 27 25.75C27.4142 25.75 27.75 25.4142 27.75 25L26.25 25ZM26.25 11L26.25 25L27.75 25L27.75 11L26.25 11Z" fill="#FFDC00"/>
<mask id="path-5-inside-1_602_413" fill="white">
<rect x="13" y="14" width="8" height="5" rx="1"/>
</mask>
<rect x="13" y="14" width="8" height="5" rx="1" stroke="#FFDC00" stroke-width="3" mask="url(#path-5-inside-1_602_413)"/>
<rect x="1.75" y="8.75" width="26.5" height="17.5" rx="1.25" stroke="black" stroke-width="1.5"/>
<path d="M19 8.75H19.75V8V7C19.75 6.0335 18.9665 5.25 18 5.25H12C11.0335 5.25 10.25 6.0335 10.25 7V8V8.75H11H19Z" stroke="black" stroke-width="1.5"/>
<path d="M4.25 19C4.25 19.4142 4.58579 19.75 5 19.75C5.41421 19.75 5.75 19.4142 5.75 19L4.25 19ZM4.25 9L4.25 19L5.75 19L5.75 9L4.25 9Z" fill="black"/>
<path d="M24.25 23C24.25 23.4142 24.5858 23.75 25 23.75C25.4142 23.75 25.75 23.4142 25.75 23L24.25 23ZM24.25 9L24.25 23L25.75 23L25.75 9L24.25 9Z" fill="black"/>
<mask id="path-10-inside-2_602_413" fill="white">
<rect x="11" y="12" width="8" height="5" rx="1"/>
</mask>
<rect x="11" y="12" width="8" height="5" rx="1" stroke="black" stroke-width="3" mask="url(#path-10-inside-2_602_413)"/>
</svg>
