<svg width="15" height="15" viewBox="0 0 15 15" fill="none" xmlns="http://www.w3.org/2000/svg">
<path d="M1.33333 13H8C8.36666 13 8.66666 13.3 8.66666 13.6667C8.66666 14.0333 8.36666 14.3333 8 14.3333H1.33333C0.966664 14.3333 0.666664 14.0333 0.666664 13.6667C0.666664 13.3 0.966664 13 1.33333 13ZM3.49333 4.38L5.38 2.49334L13.8667 10.98C14.3867 11.5 14.3867 12.3467 13.8667 12.8667C13.3467 13.3867 12.5 13.3867 11.98 12.8667L3.49333 4.38ZM9.15333 0.606669L11.04 2.49334C11.56 3.01334 11.56 3.86 11.04 4.38L10.0933 5.32667L6.32666 1.55334L7.26666 0.613336C7.78666 0.0866694 8.63333 0.0866694 9.15333 0.606669V0.606669ZM2.55333 5.32L6.32666 9.09334L5.38666 10.0333C4.86666 10.5533 4.02 10.5533 3.5 10.0333L1.61333 8.14667C1.09333 7.62667 1.09333 6.78 1.61333 6.26L2.55333 5.32Z" fill="black" fill-opacity="0.54"/>
<path d="M1.33333 13H8C8.36666 13 8.66666 13.3 8.66666 13.6667C8.66666 14.0333 8.36666 14.3333 8 14.3333H1.33333C0.966664 14.3333 0.666664 14.0333 0.666664 13.6667C0.666664 13.3 0.966664 13 1.33333 13ZM3.49333 4.37999L5.38 2.49332L13.8667 10.98C14.3867 11.5 14.3867 12.3467 13.8667 12.8667C13.3467 13.3867 12.5 13.3867 11.98 12.8667L3.49333 4.37999ZM9.15333 0.606654L11.04 2.49332C11.56 3.01332 11.56 3.85999 11.04 4.37999L10.0933 5.32665L6.32666 1.55332L7.26666 0.613321C7.78666 0.0866541 8.63333 0.0866542 9.15333 0.606654V0.606654ZM2.55333 5.31999L6.32666 9.09332L5.38666 10.0333C4.86666 10.5533 4.02 10.5533 3.5 10.0333L1.61333 8.14665C1.09333 7.62665 1.09333 6.77999 1.61333 6.25999L2.55333 5.31999Z" fill="black" fill-opacity="0.54"/>
</svg>
