<svg width="32" height="32" viewBox="0 0 32 32" fill="none" xmlns="http://www.w3.org/2000/svg">
<mask id="path-1-inside-1_692_2100" fill="white">
<path d="M5 23.9977C5 23.4455 5.44772 22.9977 6 22.9977H15C15.5523 22.9977 16 23.4455 16 23.9977V25.9977C16 26.55 15.5523 26.9977 15 26.9977H6C5.44771 26.9977 5 26.55 5 25.9977V23.9977Z"/>
</mask>
<path d="M3.5 23.9977C3.5 22.617 4.61929 21.4977 6 21.4977H15C16.3807 21.4977 17.5 22.617 17.5 23.9977L14.5 24.4977H6.5L3.5 23.9977ZM16 26.9977H5H16ZM6 26.9977C4.61929 26.9977 3.5 25.8785 3.5 24.4977V23.9977C3.5 22.617 4.61929 21.4977 6 21.4977L6.5 24.4977V25.9977C6.5 26.55 6.5 26.9977 6.5 26.9977H6ZM15 21.4977C16.3807 21.4977 17.5 22.617 17.5 23.9977V24.4977C17.5 25.8785 16.3807 26.9977 15 26.9977H14.5C14.5 26.9977 14.5 26.55 14.5 25.9977V24.4977L15 21.4977Z" fill="white" mask="url(#path-1-inside-1_692_2100)"/>
<mask id="path-3-inside-2_692_2100" fill="white">
<rect x="3" y="25.9977" width="15" height="4" rx="1"/>
</mask>
<rect x="3" y="25.9977" width="15" height="4" rx="1" stroke="white" stroke-width="3" mask="url(#path-3-inside-2_692_2100)"/>
<rect x="13.8112" y="14.7531" width="11.2379" height="5.93041" transform="rotate(-45 13.8112 14.7531)" stroke="white" stroke-width="1.5"/>
<rect x="10.9393" y="15.5037" width="2.56149" height="8.93041" rx="1.28074" transform="rotate(-45 10.9393 15.5037)" stroke="white" stroke-width="1.5"/>
<rect x="20.6969" y="5.74606" width="2.56149" height="8.93041" rx="1.28074" transform="rotate(-45 20.6969 5.74606)" stroke="white" stroke-width="1.5"/>
<path d="M22.8514 14.0998L23.3797 14.5659L28.964 19.4929C29.7197 20.1597 29.756 21.3263 29.0434 22.0389C28.3308 22.7515 27.1642 22.7152 26.4974 21.9595L21.5705 16.3751L21.1044 15.8469L22.8514 14.0998Z" stroke="white" stroke-width="1.5"/>
<line x1="24.9802" y1="19.4769" x2="26.4813" y2="17.9757" stroke="white" stroke-width="1.5"/>
<mask id="path-9-inside-3_692_2100" fill="white">
<path d="M3 21.9977C3 21.4455 3.44772 20.9977 4 20.9977H13C13.5523 20.9977 14 21.4455 14 21.9977V23.9977C14 24.55 13.5523 24.9977 13 24.9977H4C3.44771 24.9977 3 24.55 3 23.9977V21.9977Z"/>
</mask>
<path d="M1.5 21.9977C1.5 20.617 2.61929 19.4977 4 19.4977H13C14.3807 19.4977 15.5 20.617 15.5 21.9977L12.5 22.4977H4.5L1.5 21.9977ZM14 24.9977H3H14ZM4 24.9977C2.61929 24.9977 1.5 23.8785 1.5 22.4977V21.9977C1.5 20.617 2.61929 19.4977 4 19.4977L4.5 22.4977V23.9977C4.5 24.55 4.5 24.9977 4.5 24.9977H4ZM13 19.4977C14.3807 19.4977 15.5 20.617 15.5 21.9977V22.4977C15.5 23.8785 14.3807 24.9977 13 24.9977H12.5C12.5 24.9977 12.5 24.55 12.5 23.9977V22.4977L13 19.4977Z" fill="black" mask="url(#path-9-inside-3_692_2100)"/>
<mask id="path-11-inside-4_692_2100" fill="white">
<rect x="1" y="23.9977" width="15" height="4" rx="1"/>
</mask>
<rect x="1" y="23.9977" width="15" height="4" rx="1" stroke="black" stroke-width="3" mask="url(#path-11-inside-4_692_2100)"/>
<rect x="11.8112" y="12.7531" width="11.2379" height="5.93041" transform="rotate(-45 11.8112 12.7531)" stroke="black" stroke-width="1.5"/>
<rect x="8.93934" y="13.5037" width="2.56149" height="8.93041" rx="1.28074" transform="rotate(-45 8.93934 13.5037)" stroke="black" stroke-width="1.5"/>
<rect x="18.6969" y="3.74606" width="2.56149" height="8.93041" rx="1.28074" transform="rotate(-45 18.6969 3.74606)" stroke="black" stroke-width="1.5"/>
<path d="M20.8514 12.0998L21.3797 12.5659L26.964 17.4929C27.7197 18.1597 27.756 19.3263 27.0434 20.0389C26.3308 20.7515 25.1642 20.7152 24.4974 19.9595L19.5705 14.3751L19.1044 13.8469L20.8514 12.0998Z" stroke="black" stroke-width="1.5"/>
<line x1="22.9802" y1="17.4769" x2="24.4813" y2="15.9757" stroke="black" stroke-width="1.5"/>
</svg>
