<svg width="35" height="34" viewBox="0 0 35 34" fill="none" xmlns="http://www.w3.org/2000/svg">
<mask id="path-1-inside-1_688_1197" fill="white">
<path d="M4.64111 26.5859C4.64111 25.9414 5.16359 25.4189 5.8081 25.4189H16.311C16.9555 25.4189 17.478 25.9414 17.478 26.5859V28.9199C17.478 29.5644 16.9555 30.0869 16.311 30.0869H5.8081C5.16359 30.0869 4.64111 29.5644 4.64111 28.9199V26.5859Z"/>
</mask>
<path d="M2.89063 26.5859C2.89063 24.9747 4.19683 23.6685 5.8081 23.6685H16.311C17.9223 23.6685 19.2285 24.9747 19.2285 26.5859L15.7275 27.1694H6.3916L2.89063 26.5859ZM17.478 30.0869H4.64111H17.478ZM5.8081 30.0869C4.19683 30.0869 2.89063 28.7807 2.89063 27.1694V26.5859C2.89063 24.9747 4.19683 23.6685 5.8081 23.6685L6.3916 27.1694V28.9199C6.3916 29.5644 6.3916 30.0869 6.3916 30.0869H5.8081ZM16.311 23.6685C17.9223 23.6685 19.2285 24.9747 19.2285 26.5859V27.1694C19.2285 28.7807 17.9223 30.0869 16.311 30.0869H15.7275C15.7275 30.0869 15.7275 29.5644 15.7275 28.9199V27.1694L16.311 23.6685Z" fill="#BCAAA4" mask="url(#path-1-inside-1_688_1197)"/>
<mask id="path-3-inside-2_688_1197" fill="white">
<rect x="2.30713" y="28.9199" width="17.5048" height="4.66796" rx="1.16699"/>
</mask>
<rect x="2.30713" y="28.9199" width="17.5048" height="4.66796" rx="1.16699" stroke="#BCAAA4" stroke-width="3.50097" mask="url(#path-3-inside-2_688_1197)"/>
<rect x="14.9237" y="14.7975" width="13.1145" height="6.92073" transform="rotate(-45 14.9237 14.7975)" stroke="#BCAAA4" stroke-width="1.75048"/>
<rect x="11.5723" y="15.6734" width="2.98923" height="10.4217" rx="1.49462" transform="rotate(-45 11.5723 15.6734)" stroke="#BCAAA4" stroke-width="1.75048"/>
<rect x="22.9592" y="4.28638" width="2.98923" height="10.4217" rx="1.49462" transform="rotate(-45 22.9592 4.28638)" stroke="#BCAAA4" stroke-width="1.75048"/>
<path d="M25.4739 14.0351L26.0898 14.5792L32.6064 20.3293C33.4882 21.1075 33.5305 22.4683 32.6989 23.3C31.8673 24.1313 30.507 24.0885 29.7289 23.2068L23.9789 16.6902L23.4347 16.0742L25.4739 14.0351Z" stroke="#BCAAA4" stroke-width="1.75048"/>
<line x1="27.9578" y1="20.3101" x2="29.7096" y2="18.5583" stroke="#BCAAA4" stroke-width="1.75048"/>
<mask id="path-9-inside-3_688_1197" fill="white">
<rect x="2.91593" y="23.1772" width="13.1763" height="4.79138" rx="1.19784"/>
</mask>
<rect x="2.91593" y="23.1772" width="13.1763" height="4.79138" rx="1.19784" stroke="black" stroke-width="3" mask="url(#path-9-inside-3_688_1197)"/>
<mask id="path-10-inside-4_688_1197" fill="white">
<rect x="0.520244" y="26.7708" width="17.9677" height="4.79138" rx="1.19784"/>
</mask>
<rect x="0.520244" y="26.7708" width="17.9677" height="4.79138" rx="1.19784" stroke="black" stroke-width="3" mask="url(#path-10-inside-4_688_1197)"/>
<rect x="13.2606" y="13.3015" width="13.758" height="7.40048" transform="rotate(-45 13.2606 13.3015)" stroke="black" stroke-width="1.5"/>
<rect x="10.2402" y="14.2006" width="2.7715" height="10.4005" rx="1.38575" transform="rotate(-45 10.2402 14.2006)" stroke="black" stroke-width="1.5"/>
<rect x="21.9282" y="2.51245" width="2.7715" height="10.4005" rx="1.38575" transform="rotate(-45 21.9282 2.51245)" stroke="black" stroke-width="1.5"/>
<path d="M24.3058 12.7222L24.834 13.1883L31.5225 19.091C32.3634 19.8331 32.404 21.1305 31.6109 21.9235C30.8179 22.7166 29.5205 22.676 28.7784 21.8351L22.8764 15.1459L22.4103 14.6177L24.3058 12.7222Z" stroke="black" stroke-width="1.5"/>
<line x1="26.954" y1="19.0647" x2="28.7522" y2="17.2665" stroke="black" stroke-width="1.5"/>
</svg>
