<svg width="32" height="32" viewBox="0 0 32 32" fill="none" xmlns="http://www.w3.org/2000/svg">
<g clip-path="url(#clip0_602_426)">
<mask id="path-1-inside-1_602_426" fill="white">
<path d="M5 23.998C5 23.4458 5.44772 22.998 6 22.998H15C15.5523 22.998 16 23.4458 16 23.998V25.998C16 26.5503 15.5523 26.998 15 26.998H6C5.44771 26.998 5 26.5503 5 25.998V23.998Z"/>
</mask>
<path d="M3.5 23.998C3.5 22.6173 4.61929 21.498 6 21.498H15C16.3807 21.498 17.5 22.6173 17.5 23.998L14.5 24.498H6.5L3.5 23.998ZM16 26.998H5H16ZM6 26.998C4.61929 26.998 3.5 25.8788 3.5 24.498V23.998C3.5 22.6173 4.61929 21.498 6 21.498L6.5 24.498V25.998C6.5 26.5503 6.5 26.998 6.5 26.998H6ZM15 21.498C16.3807 21.498 17.5 22.6173 17.5 23.998V24.498C17.5 25.8788 16.3807 26.998 15 26.998H14.5C14.5 26.998 14.5 26.5503 14.5 25.998V24.498L15 21.498Z" fill="#FFDC00" mask="url(#path-1-inside-1_602_426)"/>
<mask id="path-3-inside-2_602_426" fill="white">
<rect x="3" y="25.998" width="15" height="4" rx="1"/>
</mask>
<rect x="3" y="25.998" width="15" height="4" rx="1" stroke="#FFDC00" stroke-width="3" mask="url(#path-3-inside-2_602_426)"/>
<rect x="13.8112" y="14.7534" width="11.2379" height="5.93041" transform="rotate(-45 13.8112 14.7534)" stroke="#FFDC00" stroke-width="1.5"/>
<rect x="10.9393" y="15.504" width="2.56149" height="8.93041" rx="1.28074" transform="rotate(-45 10.9393 15.504)" stroke="#FFDC00" stroke-width="1.5"/>
<rect x="20.6969" y="5.74637" width="2.56149" height="8.93041" rx="1.28074" transform="rotate(-45 20.6969 5.74637)" stroke="#FFDC00" stroke-width="1.5"/>
<path d="M22.8514 14.1001L23.3797 14.5663L28.964 19.4932C29.7197 20.16 29.756 21.3266 29.0434 22.0392C28.3308 22.7518 27.1642 22.7155 26.4974 21.9598L21.5705 16.3755L21.1044 15.8472L22.8514 14.1001Z" stroke="#FFDC00" stroke-width="1.5"/>
<line x1="24.9802" y1="19.4772" x2="26.4814" y2="17.976" stroke="#FFDC00" stroke-width="1.5"/>
<mask id="path-9-inside-3_602_426" fill="white">
<path d="M3 21.998C3 21.4458 3.44772 20.998 4 20.998H13C13.5523 20.998 14 21.4458 14 21.998V23.998C14 24.5503 13.5523 24.998 13 24.998H4C3.44771 24.998 3 24.5503 3 23.998V21.998Z"/>
</mask>
<path d="M1.5 21.998C1.5 20.6173 2.61929 19.498 4 19.498H13C14.3807 19.498 15.5 20.6173 15.5 21.998L12.5 22.498H4.5L1.5 21.998ZM14 24.998H3H14ZM4 24.998C2.61929 24.998 1.5 23.8788 1.5 22.498V21.998C1.5 20.6173 2.61929 19.498 4 19.498L4.5 22.498V23.998C4.5 24.5503 4.5 24.998 4.5 24.998H4ZM13 19.498C14.3807 19.498 15.5 20.6173 15.5 21.998V22.498C15.5 23.8788 14.3807 24.998 13 24.998H12.5C12.5 24.998 12.5 24.5503 12.5 23.998V22.498L13 19.498Z" fill="black" mask="url(#path-9-inside-3_602_426)"/>
<mask id="path-11-inside-4_602_426" fill="white">
<rect x="1" y="23.998" width="15" height="4" rx="1"/>
</mask>
<rect x="1" y="23.998" width="15" height="4" rx="1" stroke="black" stroke-width="3" mask="url(#path-11-inside-4_602_426)"/>
<rect x="11.8112" y="12.7534" width="11.2379" height="5.93041" transform="rotate(-45 11.8112 12.7534)" stroke="black" stroke-width="1.5"/>
<rect x="8.93934" y="13.504" width="2.56149" height="8.93041" rx="1.28074" transform="rotate(-45 8.93934 13.504)" stroke="black" stroke-width="1.5"/>
<rect x="18.6969" y="3.74637" width="2.56149" height="8.93041" rx="1.28074" transform="rotate(-45 18.6969 3.74637)" stroke="black" stroke-width="1.5"/>
<path d="M20.8514 12.1001L21.3797 12.5663L26.964 17.4932C27.7197 18.16 27.756 19.3266 27.0434 20.0392C26.3308 20.7518 25.1642 20.7155 24.4974 19.9598L19.5705 14.3755L19.1044 13.8472L20.8514 12.1001Z" stroke="black" stroke-width="1.5"/>
<line x1="22.9802" y1="17.4772" x2="24.4814" y2="15.976" stroke="black" stroke-width="1.5"/>
</g>
<defs>
<clipPath id="clip0_602_426">
<rect width="32" height="32" fill="white" transform="translate(0 0.000305176)"/>
</clipPath>
</defs>
</svg>
