<svg width="32" height="32" viewBox="0 0 32 32" fill="none" xmlns="http://www.w3.org/2000/svg">
<path d="M23.9276 24.586C23.9276 24.482 23.9433 24.3762 23.9793 24.2786C25.0571 21.3515 29 21.83 29 14.5238C29 8.71167 24.1741 4 18.221 4C12.7506 4 7.61512 6.99349 7.50461 13.0848C7.50097 13.2856 7.44174 13.4875 7.33065 13.6548C5.75929 16.0223 4.92387 17.4591 4.48272 18.2976C4.19777 18.8393 4.54886 19.4012 5.15845 19.4555L6.5308 19.5777C7.04667 19.6237 7.44209 20.0559 7.44209 20.5738V25.2857C7.44209 25.838 7.8898 26.2857 8.44209 26.2857H11.5145C12.0668 26.2857 12.5145 26.7334 12.5145 27.2857V29C12.5145 29.5523 12.9623 30 13.5145 30H22.9275C23.4798 30 23.9276 29.5534 23.9276 29.0012C23.9276 28.0253 23.9276 26.4217 23.9276 24.586Z" stroke="#FFDC00" stroke-width="1.5"/>
<path d="M17.5198 9.07496L18.0501 9.60529L18.5804 9.07496L18.9445 8.71085C20.0593 7.59613 21.8666 7.59613 22.9813 8.71085C24.0961 9.82557 24.0961 11.6329 22.9813 12.7476L18.2269 17.5021C18.1292 17.5997 17.971 17.5997 17.8733 17.5021L13.1189 12.7476C12.0042 11.6329 12.0042 9.82557 13.1189 8.71085C14.2336 7.59613 16.0409 7.59613 17.1557 8.71085L17.5198 9.07496Z" stroke="#FFDC00" stroke-width="1.5"/>
<path d="M21.9276 22.586C21.9276 22.482 21.9433 22.3762 21.9793 22.2786C23.0571 19.3515 27 19.83 27 12.5238C27 6.71167 22.1741 2 16.221 2C10.7506 2 5.61512 4.99349 5.50461 11.0848C5.50097 11.2856 5.44174 11.4875 5.33065 11.6548C3.75929 14.0223 2.92387 15.4591 2.48272 16.2976C2.19777 16.8393 2.54886 17.4012 3.15845 17.4555L4.5308 17.5777C5.04667 17.6237 5.44209 18.0559 5.44209 18.5738V23.2857C5.44209 23.838 5.8898 24.2857 6.44209 24.2857H9.51454C10.0668 24.2857 10.5145 24.7334 10.5145 25.2857V27C10.5145 27.5523 10.9623 28 11.5145 28H20.9275C21.4798 28 21.9276 27.5534 21.9276 27.0012C21.9276 26.0253 21.9276 24.4217 21.9276 22.586Z" stroke="black" stroke-width="1.5"/>
<path d="M15.5198 7.07496L16.0501 7.60529L16.5804 7.07496L16.9445 6.71085C18.0593 5.59613 19.8666 5.59613 20.9813 6.71085C22.0961 7.82557 22.0961 9.63292 20.9813 10.7476L16.2269 15.5021C16.1292 15.5997 15.971 15.5997 15.8733 15.5021L11.1189 10.7476C10.0042 9.63292 10.0042 7.82557 11.1189 6.71085C12.2336 5.59613 14.0409 5.59613 15.1557 6.71085L15.5198 7.07496Z" stroke="black" stroke-width="1.5"/>
</svg>
