<svg width="32" height="32" viewBox="0 0 32 32" fill="none" xmlns="http://www.w3.org/2000/svg">
<g clip-path="url(#clip0_602_447)">
<path d="M23.9276 24.5841C23.9276 24.4801 23.9433 24.3742 23.9793 24.2766C25.0571 21.3496 29 21.828 29 14.5219C29 8.70972 24.1741 3.99805 18.221 3.99805C12.7506 3.99805 7.61512 6.99153 7.50461 13.0828C7.50097 13.2837 7.44174 13.4855 7.33065 13.6529C5.75929 16.0204 4.92387 17.4572 4.48272 18.2957C4.19777 18.8373 4.54886 19.3992 5.15845 19.4535L6.5308 19.5758C7.04667 19.6217 7.44209 20.0539 7.44209 20.5718V25.2838C7.44209 25.836 7.8898 26.2838 8.44209 26.2838H11.5145C12.0668 26.2838 12.5145 26.7315 12.5145 27.2838V28.998C12.5145 29.5503 12.9623 29.998 13.5145 29.998H22.9275C23.4798 29.998 23.9276 29.5515 23.9276 28.9992C23.9276 28.0233 23.9276 26.4197 23.9276 24.5841Z" stroke="#FFDC00" stroke-width="1.5"/>
<path d="M13.1189 8.70883C14.2336 7.59415 16.0411 7.59412 17.1558 8.70883L18.05 9.60308L18.9443 8.70883C20.0589 7.59416 21.8664 7.59424 22.9811 8.70883C24.0958 9.82355 24.0958 11.631 22.9811 12.7457L18.2268 17.5C18.1292 17.5977 17.9709 17.5977 17.8732 17.5L13.1189 12.7457C12.0042 11.631 12.0042 9.82355 13.1189 8.70883Z" stroke="#FFDC00" stroke-width="1.5"/>
<path d="M21.9276 22.5841C21.9276 22.4801 21.9433 22.3742 21.9793 22.2766C23.0571 19.3496 27 19.828 27 12.5219C27 6.70972 22.1741 1.99805 16.221 1.99805C10.7506 1.99805 5.61512 4.99153 5.50461 11.0828C5.50097 11.2837 5.44174 11.4855 5.33065 11.6529C3.75929 14.0204 2.92387 15.4572 2.48272 16.2957C2.19777 16.8373 2.54886 17.3992 3.15845 17.4535L4.5308 17.5758C5.04667 17.6217 5.44209 18.0539 5.44209 18.5718V23.2838C5.44209 23.836 5.8898 24.2838 6.44209 24.2838H9.51454C10.0668 24.2838 10.5145 24.7315 10.5145 25.2838V26.998C10.5145 27.5503 10.9623 27.998 11.5145 27.998H20.9275C21.4798 27.998 21.9276 27.5515 21.9276 26.9992C21.9276 26.0233 21.9276 24.4197 21.9276 22.5841Z" stroke="black" stroke-width="1.5"/>
<path d="M11.1189 6.70883C12.2336 5.59415 14.0411 5.59412 15.1558 6.70883L16.05 7.60308L16.9443 6.70883C18.0589 5.59416 19.8664 5.59424 20.9811 6.70883C22.0958 7.82355 22.0958 9.63098 20.9811 10.7457L16.2268 15.5C16.1292 15.5977 15.9709 15.5977 15.8732 15.5L11.1189 10.7457C10.0042 9.63098 10.0042 7.82355 11.1189 6.70883Z" stroke="black" stroke-width="1.5"/>
</g>
<defs>
<clipPath id="clip0_602_447">
<rect width="32" height="32" fill="white" transform="translate(0 0.000305176)"/>
</clipPath>
</defs>
</svg>
