<svg width="14" height="14" viewBox="0 0 14 14" fill="none" xmlns="http://www.w3.org/2000/svg">
<path d="M9.32667 5.42C9.22 3.80666 8.64 2.22666 7.56667 0.91333C7.29333 0.579997 6.79333 0.579997 6.52 0.91333C5.42 2.23333 4.80667 3.81333 4.67333 5.42C5.52667 5.87333 6.31333 6.46 7 7.17333C7.68667 6.46666 8.47333 5.88 9.32667 5.42V5.42ZM4.99333 7.18666C4.9 7.12 4.79333 7.06 4.69333 6.99333C4.79333 7.06666 4.9 7.12 4.99333 7.18666ZM9.27333 7.02C9.18667 7.08 9.09333 7.12666 9.00667 7.19333C9.09333 7.12666 9.18667 7.08 9.27333 7.02ZM7 9.3C5.7 7.32 3.57333 5.94666 1.11333 5.70666C0.686667 5.66666 0.333334 6.02 0.373334 6.44666C0.673334 9.64666 2.80667 12.3 5.69333 13.3333C6.11333 13.4867 6.55333 13.6 7.00667 13.6733C7.46 13.5933 7.89333 13.48 8.32 13.3333C11.2067 12.3 13.34 9.65333 13.64 6.44666C13.68 6.02 13.32 5.66666 12.9 5.70666C10.4267 5.94666 8.3 7.32 7 9.3V9.3Z" fill="black" fill-opacity="0.54"/>
<path d="M9.32622 5.42007C9.21955 3.80674 8.63955 2.22674 7.56622 0.913406C7.29289 0.580073 6.79289 0.580073 6.51955 0.913406C5.41955 2.23341 4.80622 3.81341 4.67289 5.42007C5.52622 5.87341 6.31289 6.46007 6.99955 7.17341C7.68622 6.46674 8.47289 5.88007 9.32622 5.42007V5.42007ZM4.99289 7.18674C4.89955 7.12007 4.79289 7.06007 4.69289 6.99341C4.79289 7.06674 4.89955 7.12007 4.99289 7.18674ZM9.27289 7.02007C9.18622 7.08007 9.09289 7.12674 9.00622 7.19341C9.09289 7.12674 9.18622 7.08007 9.27289 7.02007ZM6.99955 9.30007C5.69955 7.32007 3.57289 5.94674 1.11289 5.70674C0.68622 5.66674 0.332886 6.02007 0.372886 6.44674C0.672886 9.64674 2.80622 12.3001 5.69289 13.3334C6.11289 13.4867 6.55289 13.6001 7.00622 13.6734C7.45955 13.5934 7.89289 13.4801 8.31955 13.3334C11.2062 12.3001 13.3396 9.65341 13.6396 6.44674C13.6796 6.02007 13.3196 5.66674 12.8996 5.70674C10.4262 5.94674 8.29955 7.32007 6.99955 9.30007V9.30007Z" fill="black" fill-opacity="0.54"/>
</svg>
