<svg width="32" height="32" viewBox="0 0 32 32" fill="none" xmlns="http://www.w3.org/2000/svg">
<path d="M23.9276 24.5838C23.9276 24.4797 23.9433 24.3739 23.9793 24.2763C25.0571 21.3493 29 21.8277 29 14.5216C29 8.70941 24.1741 3.99774 18.221 3.99774C12.7506 3.99774 7.61512 6.99123 7.50461 13.0825C7.50097 13.2834 7.44174 13.4852 7.33065 13.6526C5.75929 16.0201 4.92387 17.4569 4.48272 18.2954C4.19777 18.837 4.54886 19.3989 5.15845 19.4532L6.5308 19.5755C7.04667 19.6214 7.44209 20.0536 7.44209 20.5715V25.2835C7.44209 25.8357 7.8898 26.2835 8.44209 26.2835H11.5145C12.0668 26.2835 12.5145 26.7312 12.5145 27.2835V28.9977C12.5145 29.55 12.9623 29.9977 13.5145 29.9977H22.9275C23.4798 29.9977 23.9276 29.5512 23.9276 28.9989C23.9276 28.023 23.9276 26.4194 23.9276 24.5838Z" stroke="white" stroke-width="1.5"/>
<path d="M13.1189 8.70853C14.2336 7.59384 16.0411 7.59382 17.1558 8.70853L18.05 9.60277L18.9443 8.70853C20.0589 7.59385 21.8664 7.59393 22.9811 8.70853C24.0958 9.82325 24.0958 11.6307 22.9811 12.7454L18.2268 17.4997C18.1292 17.5973 17.9709 17.5973 17.8732 17.4997L13.1189 12.7454C12.0042 11.6307 12.0042 9.82325 13.1189 8.70853Z" stroke="white" stroke-width="1.5"/>
<path d="M21.9276 22.5838C21.9276 22.4797 21.9433 22.3739 21.9793 22.2763C23.0571 19.3493 27 19.8277 27 12.5216C27 6.70941 22.1741 1.99774 16.221 1.99774C10.7506 1.99774 5.61512 4.99123 5.50461 11.0825C5.50097 11.2834 5.44174 11.4852 5.33065 11.6526C3.75929 14.0201 2.92387 15.4569 2.48272 16.2954C2.19777 16.837 2.54886 17.3989 3.15845 17.4532L4.5308 17.5755C5.04667 17.6214 5.44209 18.0536 5.44209 18.5715V23.2835C5.44209 23.8357 5.8898 24.2835 6.44209 24.2835H9.51454C10.0668 24.2835 10.5145 24.7312 10.5145 25.2835V26.9977C10.5145 27.55 10.9623 27.9977 11.5145 27.9977H20.9275C21.4798 27.9977 21.9276 27.5512 21.9276 26.9989C21.9276 26.023 21.9276 24.4194 21.9276 22.5838Z" stroke="black" stroke-width="1.5"/>
<path d="M11.1189 6.70853C12.2336 5.59384 14.0411 5.59382 15.1558 6.70853L16.05 7.60277L16.9443 6.70853C18.0589 5.59385 19.8664 5.59393 20.9811 6.70853C22.0958 7.82325 22.0958 9.63067 20.9811 10.7454L16.2268 15.4997C16.1292 15.5973 15.9709 15.5973 15.8732 15.4997L11.1189 10.7454C10.0042 9.63067 10.0042 7.82325 11.1189 6.70853Z" stroke="black" stroke-width="1.5"/>
</svg>
